<?xml version="1.0" encoding="UTF-8"?>
<svg id="Ebene_2" data-name="Ebene 2" xmlns="http://www.w3.org/2000/svg" viewBox="0 0 649.33 723.45">
  <defs>
    <style>
      .cls-1 {
        isolation: isolate;
      }

      .cls-2 {
        stroke-width: 0px;
      }
    </style>
  </defs>
  <g id="INTRA-TEC_2024-_Top" data-name="INTRA-TEC 2024- Top" class="cls-1">
    <g id="INTRA-TEC_2024-_Top-2" data-name="INTRA-TEC 2024- Top">
      <path class="cls-2" d="m72.42,23.18h506.65v192.75h22.79v-3.99c0-69.09,0-138.17,0-207.26,0-1.56-.02-3.12-.03-4.68H49.67c-.07.97-.19,1.94-.19,2.91,0,128.8,0,257.61,0,386.41v3.33h22.94V23.18Zm-22.96,488.64v3.15c0,11.51,0,23.03,0,34.54,0,1.07.13,2.13.2,3.2h.59c1.35-.1,2.7-.29,4.05-.29,181-.01,362-.01,543.01-.01h4.34v-40.66h-22.66v17.66H72.31v-17.58h-22.85Zm28.79-22.22c12.52-5.44,20.23-15.13,23.87-28h95.57c6.97,24.11,27.97,32.78,43.73,31.2,19.08-1.92,33.74-15.57,36.88-34.5,1.46-8.82.11-17.32-4.08-25.26-5.78-10.94-14.88-17.8-26.71-21.08v-95.67c15.75-4.56,25.85-14.74,30.33-30.34h95.72c1.98,7.48,5.56,13.99,10.99,19.41,5.43,5.42,11.99,8.9,19.27,10.91v95.55c-24.9,7.24-33.27,29.32-31.03,45.71,2.38,17.39,16.79,32.34,34.27,34.91,9.31,1.37,18.1-.08,26.3-4.65,10.42-5.8,16.94-14.71,20.11-26.21h95.7c.38,1.16.76,2.35,1.16,3.54,6.82,20.19,28.14,31.78,48.89,26.59,20.42-5.11,33.82-25.29,30.54-46.02-2.97-18.77-18.41-33.18-37.1-34.64-19.3-1.5-36.72,10.09-42.51,28.46-.71,2.26-1.64,2.97-4.03,2.96-29.96-.09-59.92-.08-89.87-.02-2.1,0-2.98-.59-3.65-2.66-4.37-13.57-13.47-22.54-26.97-27.06-.81-.27-1.61-.56-2.43-.84v-95.62c15.74-4.56,25.85-14.74,30.31-30.33h95.52c7.13,24.97,30.07,34.01,47.5,30.73,18.91-3.56,32.75-19.44,33.63-38.92.85-18.7-11.65-35.89-29.92-40.97-9.14-2.54-18.2-2.05-26.93,1.69-12.66,5.42-20.49,15.15-24.17,28.21-.75.04-1.23.1-1.72.1-30.54,0-61.09-.01-91.63.04-1.77,0-2.48-.53-3.03-2.25-4.43-13.9-13.65-23.11-27.55-27.6-.71-.23-1.39-.56-2.05-.82v-95.46c21.61-5.8,34.12-25.88,30.83-46.38-3.15-19.61-19.5-34.03-38.9-34.64-19.78-.62-37.08,12.45-41.53,31.47-2.24,9.56-1.26,18.84,3.14,27.63,5.69,11.38,14.95,18.48,27.13,21.85v95.42c-.18.2-.23.3-.31.33-.83.28-1.67.53-2.5.82-13.24,4.56-22.22,13.42-26.59,26.73-.76,2.3-1.71,2.93-4.04,2.92-29.86-.08-59.72-.06-89.58-.06h-3.04c-2.66-10.05-7.99-18.11-16.36-24.02-8.49-5.99-17.99-8.37-28.27-7.24-18.03,1.98-32.81,15.93-35.78,33.66-1.5,8.92-.32,17.5,3.83,25.59,5.76,11.22,15,18.17,26.92,21.5v95.71c-7.5,2.01-14,5.58-19.44,11.03-5.42,5.43-8.87,12-10.88,19.24h-95.61c-6.51-23.07-27.11-33.55-45.43-30.98-19.74,2.77-34.26,18.38-35.62,38.03-1.32,19.05,11.22,36.83,29.65,42.03,9.36,2.64,18.56,2.14,27.47-1.74ZM196.75,100.59c-.04,22.57,18.28,41,40.83,41.08,22.78.08,41.16-18.19,41.2-40.94.03-22.65-18.17-40.99-40.77-41.07-22.76-.08-41.22,18.23-41.25,40.93Zm382.41,292.11h22.53v-56.65h-22.53v56.65ZM0,722.92h18.97v-94.83H0v94.83Zm95.09-30.16l-34.9-64.67h-20.41v94.83h17.78v-64.67l34.9,64.67h20.41v-94.83h-17.78v64.67Zm31.48-47.02h24.76v77.18h18.97v-77.18h24.76v-17.65h-68.49v17.65Zm149.23,23.31v-22.26c0-11.06-7.64-18.7-18.7-18.7h-48.34v94.83h18.97v-35.17h15.28l15.28,35.17h20.42l-15.81-35.96c7.9-2.24,12.91-8.96,12.91-17.91Zm-18.97-3.42c0,2.9-1.58,4.48-4.48,4.48h-24.63v-24.1h24.63c2.9,0,4.48,1.58,4.48,4.48v15.15Zm59.8-37.54l-30.56,94.83h19.62l6.32-21.34h30.69l6.19,21.34h20.42l-30.56-94.83h-22.13Zm.66,55.58l10.27-34.77,10.01,34.77h-20.28Zm55.58,4.48h47.42v-17.12h-47.42v17.12Zm51.37-42.41h24.76v77.18h18.97v-77.18h24.76v-17.65h-68.49v17.65Zm82.19,77.18h62.04v-17.91h-43.07v-21.6h34.9v-17.91h-34.9v-19.49h43.07v-17.91h-62.04v94.83Zm142.91-61.38v-15.28c0-11.06-7.64-18.7-18.7-18.7h-30.03c-11.06,0-18.7,7.64-18.7,18.7v58.48c0,11.06,7.64,18.7,18.7,18.7h30.03c11.06,0,18.7-7.64,18.7-18.7v-15.28h-18.97v11.59c0,2.9-1.58,4.48-4.48,4.48h-20.55c-2.9,0-4.48-1.58-4.48-4.48v-51.1c0-2.9,1.58-4.48,4.48-4.48h20.55c2.9,0,4.48,1.58,4.48,4.48v11.59h18.97Z"/>
    </g>
  </g>
</svg>